<svg width="200" height="200" viewBox="0 0 200 200" fill="none" xmlns="http://www.w3.org/2000/svg">
<circle cx="100" cy="100" r="99.5" fill="white" stroke="black"/>
<path d="M100 0.5C106.847 0.5 110.843 2.05206 113.048 4.62207C115.258 7.19827 115.785 10.9302 115.364 15.5801C114.944 20.2224 113.593 25.6485 112.183 31.5234C110.777 37.3807 109.318 43.6628 108.713 49.9521C107.502 62.551 109.716 75.2595 122.658 84.7773C135.488 94.2125 158.784 100.447 199.496 100.498C199.228 155.221 154.786 199.5 100 199.5C45.0477 199.5 0.5 154.952 0.5 100C0.5 45.0477 45.0477 0.5 100 0.5Z" fill="black" stroke="black"/>
</svg>
